<svg xmlns="http://www.w3.org/2000/svg" width="15.228" height="15.228" viewBox="0 0 15.228 15.228">
  <defs>
    <style>
      .cls-1 {
        fill: #fff;
      }
    </style>
  </defs>
  <path id="对象" class="cls-1" d="M5.726,0H.944A.949.949,0,0,0,0,.944v6.67a.949.949,0,0,0,.944.944H5.7a.949.949,0,0,0,.944-.944V.944A.9.9,0,0,0,5.726,0Zm0,10.477H.944A.949.949,0,0,0,0,11.421v2.863a.949.949,0,0,0,.944.944H5.7a.949.949,0,0,0,.944-.944V11.421a.9.9,0,0,0-.914-.944ZM14.284,0H9.533a.949.949,0,0,0-.944.944V3.807a.949.949,0,0,0,.944.944h4.751a.949.949,0,0,0,.944-.944V.944A.949.949,0,0,0,14.284,0Zm0,6.67H9.533a.949.949,0,0,0-.944.944v6.67a.949.949,0,0,0,.944.944h4.751a.949.949,0,0,0,.944-.944V7.614A.949.949,0,0,0,14.284,6.67Z"/>
</svg>
